<svg version="1.2" xmlns="http://www.w3.org/2000/svg" viewBox="0 0 500 500" width="500" height="500"><defs><clipPath clipPathUnits="userSpaceOnUse" id="cp1"><path d="m115 16h270c54.68 0 99 44.32 99 99v270c0 54.68-44.32 99-99 99h-270c-54.68 0-99-44.32-99-99v-270c0-54.68 44.32-99 99-99z"/></clipPath><linearGradient id="P" gradientUnits="userSpaceOnUse"/><radialGradient id="g1" cx="0" cy="0" r="1" href="#P" gradientTransform="matrix(0,243.892,-243.892,0,249.775,314.892)"><stop stop-color="#f1f3fb"/><stop offset="1" stop-color="#c6cbe2"/></radialGradient></defs><style>.a{fill:url(#g1);stroke:#c8cfee;stroke-miterlimit:100;stroke-width:6}</style><g clip-path="url(#cp1)"><path fill-rule="evenodd" class="a" d="m36.1 509.9c0 0-9.4-239.4 122.7-373.9 126.6-129 204.1-26.2 204.1-26.2 25-5.9 84.5-10.2 90.9-1.1 0 0-207.2 100.2-76.5 164.6 102.4 91.6 85.2 257.4 85.2 257.4 0 0-30.2 81-82.9-32.1-53.6-114.7-61-287-175.6-259.6-130.3 31.2-114 265.2-114 265.2zm246.6-360.7c0-13.3-10.8-24.1-24.1-24.1-13.3 0-24 10.8-24 24.1 0 13.3 10.7 24 24 24 13.3 0 24.1-10.7 24.1-24z"/></g></svg>